# xmcd CD database file
#
# Track frame offsets:
#	150
#	21642
#	40061
#	58705
#	87320
#	110243
#	130246
#	146783
#	164842
#	185519
#
# Disc length: 2766 seconds
#
# Revision: 0
# Processed by: cddbd v1.5.1PL0 Copyright (c) Steve Scherf et al.
# Submitted via: NeoAudio 9.9.9
#
DISCID=9b0acc0a
DTITLE=La Son Charanga - Salsa Y Charanga
DYEAR=1900
DGENRE=Salsa
TTITLE0=Nuestro Matrimonio
TTITLE1=Alcatraz
TTITLE2=Salsa Y Charanga
TTITLE3=El Negro Ray
TTITLE4=El Pio Pio
TTITLE5=El Sopón
TTITLE6=Ella No Baila Sola
TTITLE7=Ella Sabe
TTITLE8=Negra Santa
TTITLE9=El Paso De Encarnación
EXTD=
EXTT0=
EXTT1=
EXTT2=
EXTT3=
EXTT4=
EXTT5=
EXTT6=
EXTT7=
EXTT8=
EXTT9=
PLAYORDER=
